<svg xmlns="http://www.w3.org/2000/svg" viewBox="0 0 150 150">
    <defs>
        <style>
            .cls-1{fill:#388fdd;}.cls-2{fill:#fdd104;}.cls-3{fill:#df3734;}.cls-4{fill:#4eb949;}.cls-5{fill:#e1e2e3;}
        </style>
    </defs>
    <title>ChromeStore</title>
    <g id="ChromeStore">
        <path class="cls-1" d="M94.08,129a19.13,19.13,0,1,0-32.41,0Z"/>
        <path class="cls-2"
              d="M124.54,99.75H90.11a21.66,21.66,0,0,1,3.82,3,22.86,22.86,0,0,1,4.66,26.39l28.07,0A46.72,46.72,0,0,0,124.54,99.75Z"/>
        <path class="cls-3"
              d="M77.7,68.32C61.09,68.72,47.76,75.24,38,88.4l17,29.5A23,23,0,0,1,78,96.39l2.24,0s28.75-.22,42.71-.28C115.94,79.73,96.69,67.86,77.7,68.32Z"/>
        <path class="cls-4"
                  d="M35.6,91.48c-7.45,11.45-9.1,24-6.73,37.41v0a.33.33,0,0,1,.39.22l27.9-.06c-.18-.36-.33-.74-.49-1.11Z"/>
        <path class="cls-5"
              d="M136.87,40.57c0-1-1.8-2.69-2.8-2.71h-24.2c-4.78.27-6.05-1.24-5.65-5.78s-7.31-12-12-12H67.11C57.87,20.11,52,25.86,51.56,35A3.82,3.82,0,0,1,49,37.62c-6,0-26.95.38-26.93.25a4.22,4.22,0,0,0-2.9,2.91C18.91,52.38,19,64,19,75.58c0,14.22.12,28.45,0,42.67-.06,5.67,2.48,9.62,6.79,10.51A53.83,53.83,0,1,1,131,128.63c4.13-1.1,6-4,6-9.38Q137,79.91,136.87,40.57Zm-44-3c-9.94.29-19.9.31-29.84,0-.83,0-2-3.22-2.15-5-.1-1,1.45-3,2.35-3.08,5-.31,10-.15,15.07-.15,4.82,0,9.67-.21,14.46.19.93.08,2.28,2.6,2.3,4S93.72,37.53,92.89,37.55Z"/>
    </g>
</svg>