<svg id="Layer_1" data-name="Layer 1" xmlns="http://www.w3.org/2000/svg" viewBox="0 0 150 150"><defs><style>.cls-1{fill:#ab3029;}</style></defs><title>CodeWars</title><g id="Codewars"><path class="cls-1" d="M135,83.16c0,3.74-2.49,4.68-3.17,8-.5,2.45.35,3.76-1.23,6-1.21,1.75-3.25,3.48-4.66,5.14-1.15,1.35-2.38,3.59-3.73,4.64-1.77,1.38-2.49.66-4.37,1.43-2.07.86-1.85,2.62-3.17,4a24.85,24.85,0,0,1-3.94,3c-3.15,2.16-4.55,2.95-6,6.34-1.93,4.4-3.87,4.1-7.84,5.75-3.27,1.37-3.58,4.55-7.57,5-1.56.16-3-.5-4.6-.19-2,.39-3.52,1.73-5.63,2-4.72.48-8.5-1.67-12.65-3.34-1.46-.58-2.8-.53-4.24-1.33-1.94-1.08-3.18-3.13-5.21-4.17a34.76,34.76,0,0,0-10.84-3c-1.9-.12-3.6.68-5.51,0-2.21-.79-3.57-2.92-5.65-4-1.58-.8-3.5-.76-4.93-1.89-1.69-1.33-1.38-3-2.29-4.58-1.87-3.35-4.83-3.51-5.68-7.62-.69-3.37-2.9-7.61-2.48-11.27.17-1.4,1.56-2.39,1.61-3.63.09-1.94-1.44-1.72-2-3.06-1.13-2.6.54-6.47-.46-9.21-.73-2-2.62-3.13-3.34-5.15-.9-2.52.1-3.92.71-6.27.74-2.84-.21-4.85.19-7.56.35-2.44,2.45-3.11,3.44-5.08s.54-3.82,1.91-5.67C24.06,44.24,30,42.06,28.4,37c3.59,1.81,7.28,2.31,9.74-1,1-1.32,1.24-2.78,2.54-4.11,1.54-1.57,2.52-2.13,3.78-4,2.35-3.53,4.51-4.05,7.75-6.64,2.78-2.22,4-3.86,7.74-3.46,1.3.13,2.71,1,4.06.58,1.55-.46,2-2.15,3.48-2.65,2.23-.76,8.27,1,10.76,1.35,2.76.4,1.58.28,3.66,1.62,1.7,1.11,3.14,2.94,4.92,3.87,2.93,1.55,7.21,1.76,10.59,1.87,3.19.1,6.53-.78,9.33,1.21,1.54,1.08,2.06,2.52,3.92,3.23,1.61.62,3.39,0,5,.72,2.72,1.25,2.48,4,4.1,6,1,1.26,2.88,1.65,4,3.23a20.9,20.9,0,0,1,2.92,6.19c.3,1.37-.2,2.8,0,4.19.3,1.72,1.2,2.79,1.3,4.54.07,1.43-.84,3-.49,4.42.51,2.09,1.73,3.64,2.13,5.87.63,3.55,2.18,4.5,3.79,7.44C135.52,75.29,132.92,79.39,135,83.16ZM80.79,75.87c1.5,4.66,4.34,9.36,4.64,14.37.14,2.34-1.22,3.72-1.62,5.91-.58,3.15-.63,4.28-2.27,7.06-1.15,1.94-1.7,4.21-3.08,6-1.6,2.07-3.92,2.88-5.2,5.23-1.11,2-1.17,3.93-3.34,5.21-2,1.18-4.44.5-6.58,1.1,5.3,6.63,18.31,2.06,24.41-.68,2.84-1.27,5-3.54,7.32-5.88,2.08-2.06,1.59-1.81,2.12-4.72.39-2.17,2.21-3.27,2.74-5.1.7-2.39-.3-2.58-.45-5-.13-2,1.53-3.56.94-5.7-.37-1.34-1.42-2-1.86-3.32C98,88.83,98.2,87.56,97.31,86a18.58,18.58,0,0,0-7.37-6.94,10.66,10.66,0,0,0-1.87.1,3.25,3.25,0,0,1-.78-1.08C84.35,76.6,84.29,75.61,80.79,75.87ZM29.63,65.57c-.65,2.57-2.1,5.32-.56,7.52.73,1,2.54,1.35,3.41,2.47S33.25,78,33.9,79c3,4.62,11.36,7.06,16.61,6.87,2.65-.09,4.92-1.25,7.23-2.08s4.81-1.2,6.86-2.84c1.75-1.39,4.45-3.74,2.54-5.34-1.46-1.24-7.58-.43-9.79-1-3.06-.79-3.63-2.62-6-4s-4.43-.57-6.17-3c-.67-.92-.5-2.36-1.22-3.36s-2.22-1.42-3.12-2.4c-2.49-2.73-.83-5.47-1.94-8.57-.49-1.37-1.7-2.24-2.07-3.86-.22-1,.52-2.81-.25-3.5-2-1.85-3.91,2.42-4.82,3.86C30.05,52.42,23.39,64.35,29.63,65.57Zm75.16-4a24.69,24.69,0,0,0-18.34,2.2c-1.29.65-7.26,3.42-4.5,5.2,1.55,1,6.54.51,8.67,1.2,1.38.44,4.41,1.14,5.61,1.92,1,.69,1.28,2.09,2.31,2.82,1.56,1.1,3.68.84,5,2.41,1.7,2.08.66,4.18,2.86,6.09,2.78,2.41,3,2.09,3.76,5.93.56,2.87,2.88,3.94,3.38,6.74.41,2.26-1.84,4.66,1.39,5.1,2.36.32,5.16-5.91,6-7.5,2-3.73.8-5.87,1.31-9.68.56-4.17.68-2.53-.82-6.3-1-2.41.32-4.26-1.42-6.21-.83-.92-2.72-1.39-3.76-2.32s-1.87-2.4-3-3.41A7.25,7.25,0,0,0,105,64.35ZM49,108c4.43,5.93,10.4,1.49,15.87-.82,3.38-1.44,2.29-2.23,4.37-4.87C71,100,72.42,99.81,73.72,97s1.13-4.11,1.53-7.1c.21-1.56,2.07-8,0-9.35s-5.63,5.93-7,7.39a26.66,26.66,0,0,1-5.19,4.38c-1.18.56-2.58.24-3.74.72-1.49.62-2.21,1.88-3.77,2.37-2.31.74-5.07,0-7.45.58-4.44,1-4.51.43-8.43-1.26-4.2-1.81-12.29-2.31-9.53,4.49,2.57,6.34,11.73,9.81,17.49,12.14C47.79,110.86,48.38,108.32,49,108ZM72.94,61.9c-.66.38.76,2.27,1,2.76,4.3-4,7.66-8.82,13-11.06,3-1.26,5.54-2.43,8.75-2.8,2.56-.3,5.66-1.41,8.18-1.26,2.68.17,4.58,1.86,7.18,2.12,1.13.11,6.41,1.32,7.29.65,2.8-2.14-3.54-8.42-4.88-9.85-.62-.67-.42-1.74-1.33-2.28s-1.91,0-2.87-.42c-2-.84-2.39-3-4.25-3.63-1.12-.36-2.79.49-4,.35-1.54-.18-2.8-1.28-4.37-1.36C94,35,91,36.77,88.5,37.45c-2.3.61-5.77,1-7.59,2.74-1.18,1.11-.72,2.39-1.68,3.5-.7.81-1.75,1.13-2.37,1.73C72.78,49.36,72.94,56.12,72.94,61.9ZM71.47,24.6c-2.39.44-4.58-.12-6.69,1.31-.88.6-1,1.52-1.93,2.09s-2.48.58-3.56,1.21c-4.41,2.55-7,8-7.74,12.86-.48,3.19-.54,4.59-1.78,7.37s-.56,4,1.09,6.94c1.4,2.5,3.46,6.71,5.66,8.56,1.64,1.38,7.14,4.59,9.26,4.76,5.62.45-1.66-5.76-1.85-8.09a43.07,43.07,0,0,1,.18-4.49c.07-1.39.27-2.7.41-4.08.25-2.57.11-4.94,1.24-7.31A30.36,30.36,0,0,0,67.9,39c.68-2.63,2.25-2.89,4.16-4.4a12.56,12.56,0,0,0,4.12-5.85C77.88,24.43,75.54,24.84,71.47,24.6Z"/></g></svg>