<svg id="Layer_1" data-name="Layer 1" xmlns="http://www.w3.org/2000/svg" viewBox="0 0 150 150"><defs><style>.cls-1{fill:#006401;}</style></defs><title>FreeCodeCamp</title><g id="FreeCodeCamp"><path id="fire" class="cls-1" d="M70.43,102.46c-.9.89-9.84-.9-16.11-8.95s-4.47-20.58-1.79-24.16c0,0,3.58-5.37,9.85-16.11C70.43,38,58.8,33.56,57.9,31.77c0-.9,5.73-1.13,8.95,0C79.38,38,80.27,49.66,80.27,49.66s0,11.64,5.37,11.64c5.37-2.69-.9-10.74,0-11.64.92-.74,6.94,3.19,10.74,9.85a33.81,33.81,0,0,1,4.47,17.89,29.08,29.08,0,0,1-5.37,14.32c-4.33,6-10.74,9-12.52,8C82.06,98,88.16,96,90.11,89a15.59,15.59,0,0,0,0-9.84c-1.79-5.37-4.87-6.61-5.37-6.26.9.89,2.69,5.37,1.79,7.16-1.79,1.79-6.26,1.79-8-.9-.89-4.47.9-5.37,0-9-1.79-8-9-8-9-8s5.37,3.58,3.58,8c-2.68,6.27-3.58,4.48-7.16,8.06-2.65,3.42-5.1,6.5-4.47,10.73C61.48,99.77,70.43,100.67,70.43,102.46Z"/><g id="brackets"><path class="cls-1" d="M7.49,75.88c0-16.88,6.21-31.18,18-43.12a16.57,16.57,0,0,1,5.27-3.5,2.39,2.39,0,0,1,3.11.7,3.09,3.09,0,0,1,0,3.6,22.75,22.75,0,0,1-3.61,4.2C9.34,59,9.3,94.7,30.22,116.07c1.2,1.22,2.71,2.32,3.4,3.8.61,1.3,1.06,3.46-.2,4.57a3.45,3.45,0,0,1-4.09.06,26.27,26.27,0,0,1-6.07-5.32C12.54,106.81,7.53,92.87,7.49,75.88Z"/><path class="cls-1" d="M142.51,78.57c.21,16.74-6,30.91-17.47,42.86a17.94,17.94,0,0,1-5.53,3.89,2.83,2.83,0,0,1-3.06-.45,4.89,4.89,0,0,1-.26-3.92,21.11,21.11,0,0,1,3.36-3.86c21.21-21.49,21.36-56.84.31-78.62-1.28-1.33-2.83-2.56-3.65-4.15-.59-1.15-1-2.5,0-3.79a3.57,3.57,0,0,1,4.14-.75,17.33,17.33,0,0,1,5,3.93C137.17,46.29,142.5,61.42,142.51,78.57Z"/></g><path id="underline" class="cls-1" d="M106.54,110.66c3.82,0,5.93.18,5.91,3.88s-1.94,3.93-5.91,3.93q-30.63,0-61.24,0c-.58,0-1.15,0-1.72,0-2.57,0-3.72-1.47-3.72-4.05s1.65-3.65,4-3.65Z"/></g></svg>