<svg id="Layer_1" data-name="Layer 1" xmlns="http://www.w3.org/2000/svg" viewBox="0 0 150 150"><defs><style>.cls-1{fill:#323131;}</style></defs><title>Github</title><path id="Github" class="cls-1" d="M5,75a70,70,0,1,1,69.82,70A70.09,70.09,0,0,1,5,75Zm52.33,55.22V115.44a19.59,19.59,0,0,0-2.45,0c-8.87,1.14-15-2.16-18.61-10.57-1-2.39-3.25-4.27-5-6.32-.86-1-1.9-1.84-3.09-3,4.17-1.3,7-.47,9.86,2.68,1.74,1.93,3.17,4.13,5,6,3.39,3.47,10.26,4.85,14.08,2,2.59-1.91,4-5.35,6.21-8.38-2.44-.41-4.59-.69-6.71-1.15C49.5,95.22,42.69,93,38.34,86.63c-5.84-8.51-5.38-23.52.48-32.2,1-1.5,1.11-3.72,1.3-5.64.39-3.94.46-7.91.85-11.84a2.53,2.53,0,0,1,3.65-2.31c4.45,1.64,8.79,3.59,13.22,5.3a14.91,14.91,0,0,0,5,1.26c7.75,0,15.52-.47,23.27-.18a12.73,12.73,0,0,0,7.23-1.64A66.84,66.84,0,0,1,104,34.74c2.89-1,5.23,0,5.55,3.38s.21,6.93.51,10.38c.18,2,.23,4.41,1.3,6,10.73,15.93,3.18,36.83-15.26,41.75-2.94.78-6,1.27-9.77,2.06,5.57,4.2,6.34,9.57,6.2,15.34-.14,5.52,0,11,0,16.64,23.81-3.71,43-32.83,40.81-61.33-2.2-29-28.43-52.55-58.43-52.47S18.91,40.2,16.71,69.32C14.58,97.45,33.91,126.63,57.33,130.25Z"/></svg>