<svg id="Layer_1" data-name="Layer 1" xmlns="http://www.w3.org/2000/svg" viewBox="0 0 150 150"><defs><style>.cls-1{fill:none;}</style></defs><title>Codepen</title><g id="Codepen"><circle id="background" class="cls-1" cx="75.25" cy="75.25" r="60.75"/><path id="circle" d="M144.93,72.92c1.69,37.9-28.59,70.18-67.56,72-37.61,1.76-70.62-28.64-72.3-66.58C3.36,39.72,33.27,6.79,71.63,5.07,110.82,3.32,143.16,33.26,144.93,72.92ZM133.5,75C133.42,42.59,107,16.19,74.85,16.39S16.36,42.93,16.38,74.88A58.56,58.56,0,1,0,133.5,75Z"/><path id="boxlogo" d="M118.29,75c0,4,.26,8.06-.12,12a7.16,7.16,0,0,1-2.62,4.71c-12.35,8.46-24.87,16.66-37.27,25-2.3,1.55-4.19,1.61-6.51,0Q53.17,104.31,34.44,92a5.47,5.47,0,0,1-2.73-5.11c.1-7.93-.12-15.86.17-23.78a7.19,7.19,0,0,1,2.68-5c12.25-8.41,24.68-16.54,37-24.85,2.39-1.61,4.34-1.73,6.79-.07q18.47,12.49,37.09,24.75a5.75,5.75,0,0,1,2.89,5.39C118.22,67.22,118.29,71.13,118.29,75ZM71.39,107.7c0-5.84.06-11-.07-16.15a3.45,3.45,0,0,0-1.46-2.26q-6.52-4.52-13.22-8.79a2.93,2.93,0,0,0-2.49-.32c-4,2.51-7.87,5.2-12.06,8Zm0-65.43L42.12,61.82c4.09,2.75,7.61,5.26,11.3,7.5a3.83,3.83,0,0,0,3.35.07c4.49-2.78,8.87-5.77,13.21-8.81a3.4,3.4,0,0,0,1.35-2.28C71.45,53.25,71.39,48.19,71.39,42.27Zm7.34.1c0,5.93,0,11.2,0,16.46A2.71,2.71,0,0,0,80,60.56c4.47,3.06,9,6.08,13.52,9a2.59,2.59,0,0,0,2.27.27c4-2.51,7.87-5.18,12.15-8ZM94.86,79.44c-5,3.33-9.86,6.56-14.69,9.83-.57.39-1.35,1.06-1.36,1.61-.11,5.43-.06,10.85-.06,16.76l29.13-19.46ZM88.18,75c-4.26-2.86-8.08-5.49-12-8A2.58,2.58,0,0,0,74,67c-4,2.54-7.9,5.21-12.15,8L75,83.83Zm-49-6.16V81.18L48.4,75Zm71.17,0-9.23,6.23,9.23,6Z"/></g></svg>